<?xml version="1.0" encoding="utf-8"?>
<!-- Generator: Adobe Illustrator 16.0.0, SVG Export Plug-In . SVG Version: 6.00 Build 0)  -->
<!DOCTYPE svg PUBLIC "-//W3C//DTD SVG 1.1//EN" "http://www.w3.org/Graphics/SVG/1.1/DTD/svg11.dtd">
<svg version="1.1" id="Layer_1" xmlns="http://www.w3.org/2000/svg" xmlns:xlink="http://www.w3.org/1999/xlink" x="0px" y="0px"
	 width="600px" height="170px" viewBox="0 0 600 170" enable-background="new 0 0 600 170" xml:space="preserve">
<g>
	<path fill="#08BCDF" d="M34.064,14.749L6.818,14.572C5.827,14.546,5,15.353,5,16.377v95.735c0,1.021,0.818,1.807,1.807,1.807
		h27.246c0.987,0,1.807-0.786,1.807-1.807V16.587C35.859,15.573,35.047,14.756,34.064,14.749"/>
	<path fill="#08BCDF" d="M175.636,85.102H79.217c-1.019,0-1.837-0.786-1.837-1.807V45.854c0-0.987,0.819-1.807,1.837-1.807H175.2
		c0.987,0,1.805-0.818,1.805-1.806V16.365c0-1.02-0.818-1.839-1.805-1.839H50.602c-0.986,0-1.807,0.819-1.807,1.839v96.417
		c0,1.021,0.82,1.804,1.807,1.804h125.034c1.02,0,1.837-0.782,1.837-1.804V86.904C177.473,85.92,176.656,85.102,175.636,85.102"/>
	<path fill="#08BCDF" d="M313.374,14.761h-25.407c-0.988,0-1.806,0.819-1.806,1.839v32.663c0,0.987-0.819,1.806-1.807,1.806h-66.963
		c-0.986,0-1.805-0.818-1.805-1.806V16.377c0-1.024-0.825-1.812-1.818-1.805l-24.972,0.176c-0.988,0.007-1.794,0.823-1.794,1.809
		v95.757c0,1.021,0.82,1.873,1.806,1.873h24.973c0.988,0,1.806-0.852,1.806-1.873V79.887c0-0.988,0.819-1.807,1.805-1.807h66.963
		c0.988,0,1.807,0.818,1.807,1.807v32.427c0,1.021,0.818,1.873,1.806,1.873h25.407c1.02,0,1.807-0.852,1.807-1.873V16.6
		C315.181,15.58,314.394,14.761,313.374,14.761"/>
	<path fill="#08BCDF" d="M593.196,50.866h-96.482c-0.956,0-1.807-0.818-1.807-1.838v-3.845c0-1.021,0.851-1.808,1.807-1.808h96
		c1.026,0,1.814-0.823,1.807-1.849l-0.175-24.971c-0.008-0.986-0.855-1.796-1.807-1.796H468.163c-1.021,0-1.807,0.819-1.807,1.839
		v59.674c0,0.988,0.786,1.807,1.807,1.807h94.143c1.02,0,1.807,0.818,1.807,1.807v4.313c0,1.019-0.787,1.837-1.807,1.837h-94.611
		c-1.019,0-1.807,0.785-1.807,1.806v24.739c0,1.021,0.788,1.807,1.807,1.807h125.502c1.021,0,1.804-0.786,1.804-1.807V52.67
		C595,51.653,594.217,50.866,593.196,50.866"/>
	<path fill="#08BCDF" d="M390.334,25.178c21.791,0,39.401,17.674,39.401,39.431c0,9.236-3.166,17.733-8.536,24.442l-25.504-23.735
		c-1.053-0.99-2.695-0.904-3.616,0.116c-0.99,1.053-0.937,2.66,0.116,3.648l25.558,23.817c-7.081,6.903-16.77,11.141-27.419,11.141
		c-21.788,0-39.46-17.672-39.46-39.43C350.874,42.852,368.546,25.178,390.334,25.178 M390.935,125.285
		c33.644,0,60.98-27.272,60.98-60.979c0-33.675-27.337-60.946-60.98-60.946c-33.707,0-60.979,27.271-60.979,60.946
		C329.955,98.013,357.228,125.285,390.935,125.285"/>
	<path fill="#08BCDF" d="M348.387,152.948c0,1.285-0.608,1.821-2.137,1.821h-9.217v-9.881h9.217c1.528,0,2.137,0.538,2.137,1.822
		V152.948z M345.033,140.62h-13.563v26.02h5.563v-7.539h8c5.545,0,8.978-2.692,8.978-6.957v-4.566
		C354.011,143.249,350.578,140.62,345.033,140.62"/>
	<path fill="#08BCDF" d="M375.312,152.214c0,0.31,0,1.082-1.698,1.082h-9.027v-8.407h9.027c1.698,0,1.698,0.713,1.698,1.088V152.214
		z M380.874,152.179v-4.867c0-5.7-3.102-6.691-9.282-6.691h-12.633v26.02h5.627v-9.074h7.531l4.714,9.074h6.188l-5.483-9.615
		C379.318,156.424,380.874,154.777,380.874,152.179"/>
	<path fill="#08BCDF" d="M405.597,160.486c0,1.487-0.309,1.82-1.697,1.82h-9.838c-1.323,0-1.699-0.333-1.699-1.82v-13.775
		c0-1.422,0.376-1.822,1.699-1.822h9.838c1.389,0,1.697,0.4,1.697,1.822V160.486z M402.681,140.62h-7.402
		c-5.323,0-8.477,2.569-8.477,6.957v12.107c0,4.321,3.153,6.955,8.477,6.955h7.402c5.387,0,8.541-2.634,8.541-6.955v-12.107
		C411.222,143.189,408.067,140.62,402.681,140.62"/>
	<path fill="#08BCDF" d="M434.84,160.486c0,1.284-0.607,1.82-2.138,1.82h-10.028v-17.418h10.028c1.53,0,2.138,0.538,2.138,1.822
		V160.486z M431.485,140.62h-14.438v26.02h14.438c5.55,0,8.982-2.69,8.982-6.955v-12.107
		C440.468,143.249,437.035,140.62,431.485,140.62"/>
	<path fill="#08BCDF" d="M463.46,160.486c0,1.284-0.608,1.823-2.139,1.823h-8.583c-1.526,0-2.137-0.539-2.137-1.823V140.62h-5.563
		v18.666c0,4.413,3.583,7.354,8.917,7.354h6.149c5.336,0,8.917-2.94,8.917-7.354V140.62h-5.562V160.486z"/>
	<path fill="#08BCDF" d="M474.473,147.577v12.107c0,4.321,3.153,6.955,8.543,6.955h12.152v-4.333h-13.434
		c-1.325,0-1.636-0.333-1.636-1.82v-13.775c0-1.422,0.311-1.822,1.636-1.822h13.434v-4.269h-12.152
		C477.626,140.62,474.473,143.189,474.473,147.577"/>
	<polygon fill="#08BCDF" points="498.046,144.756 507.222,144.756 507.222,166.64 512.78,166.64 512.78,144.756 521.954,144.756 
		521.954,140.62 498.046,140.62 	"/>
	<rect x="526.966" y="140.62" fill="#08BCDF" width="5.628" height="26.02"/>
	<path fill="#08BCDF" d="M557.217,160.486c0,1.487-0.31,1.82-1.634,1.82h-9.902c-1.322,0-1.637-0.333-1.637-1.82v-13.775
		c0-1.422,0.314-1.822,1.637-1.822h9.902c1.324,0,1.634,0.4,1.634,1.822V160.486z M554.302,140.62h-7.34
		c-5.388,0-8.54,2.569-8.54,6.957v12.107c0,4.321,3.152,6.955,8.54,6.955h7.34c5.387,0,8.541-2.634,8.541-6.955v-12.107
		C562.843,143.189,559.688,140.62,554.302,140.62"/>
	<polygon fill="#08BCDF" points="589.188,161.255 577.038,140.62 568.669,140.62 568.669,166.64 574.297,166.64 574.297,145.955 
		586.368,166.64 594.812,166.64 594.812,140.62 589.188,140.62 	"/>
</g>
</svg>
